<?xml version="1.0" standalone="no"?>
<!DOCTYPE svg PUBLIC "-//W3C//DTD SVG 20010904//EN"
 "http://www.w3.org/TR/2001/REC-SVG-20010904/DTD/svg10.dtd">
<svg version="1.0" xmlns="http://www.w3.org/2000/svg"
 width="512.000000pt" height="512.000000pt" viewBox="0 0 512.000000 512.000000"
 preserveAspectRatio="xMidYMid meet">
<metadata>
Created by potrace 1.14, written by Peter Selinger 2001-2017
</metadata>
<g transform="translate(0.000000,512.000000) scale(0.100000,-0.100000)"
fill="#000000" stroke="none">
<path d="M2369 5096 c-2 -2 -35 -6 -74 -9 -128 -10 -313 -47 -484 -96 -157
-46 -430 -167 -551 -246 -152 -98 -197 -129 -285 -199 -444 -354 -759 -865
-880 -1428 -23 -107 -21 -98 -42 -273 -15 -120 -7 -542 11 -596 3 -8 7 -34 10
-59 9 -75 28 -159 68 -300 141 -495 441 -934 875 -1281 55 -44 190 -133 285
-188 300 -172 639 -282 988 -318 93 -10 424 -10 505 -1 337 40 583 112 870
255 115 57 182 94 202 112 7 6 15 11 18 11 7 0 127 80 135 90 3 3 21 17 40 30
19 13 37 27 40 30 3 3 39 34 80 69 309 264 560 620 704 997 35 94 39 106 76
234 60 211 85 404 85 670 0 265 -26 459 -92 685 -200 690 -678 1255 -1324
1568 -143 69 -370 152 -469 171 -14 3 -65 14 -115 25 -49 10 -115 22 -146 26
-31 3 -67 8 -80 11 -28 6 -444 16 -450 10z"/>
</g>
</svg>
